<?xml version="1.0" encoding="UTF-8"?>
<svg id="Layer_1" xmlns="http://www.w3.org/2000/svg" version="1.1" viewBox="0 0 1099.3 816.6">
  <!-- Generator: Adobe Illustrator 29.2.0, SVG Export Plug-In . SVG Version: 2.1.0 Build 108)  -->
  <defs>
    <style>
      .st0 {
        fill: #753a18;
      }

      .st1 {
        fill: #c2aed2;
      }
    </style>
  </defs>
  <rect class="st1" x="142.5" y="-142.5" width="815" height="1100" transform="translate(957.5 -142.5) rotate(90)"/>
  <g>
    <g>
      <path class="st0" d="M412.3,414.7c4.5,2.7,8.8,4.5,12.7,5.6,3.9,1.1,8.6,1.6,13.9,1.6s12-1.3,16.7-4c4.7-2.7,9.1-6.1,12.9-10.3,3.9-4.2,7.5-8.8,10.7-13.8,3.3-5,6.5-9.8,9.7-14.4,3.2-4.6,6.6-8.8,10.1-12.4,3.5-3.7,7.5-6.2,11.9-7.5-4.1-.3-8.1-1.1-11.8-2.5-3.7-1.4-7.1-3.4-9.9-5.9-2.9-2.5-5.1-5.6-6.8-9.1-1.7-3.5-2.5-7.5-2.5-11.9s1.1-9.9,3.2-13.7c2.1-3.8,4.9-6.9,8.4-9.3,3.5-2.4,7.5-4.1,11.9-5.2,4.5-1.1,9.1-1.6,13.9-1.6h32.5c-2.4.7-4.1,1.9-5,3.8-.9,1.9-1.4,3.9-1.4,6.2v78c0,2.3.4,4.4,1.3,6.3.9,1.9,2.6,3.2,5.1,3.9h-19.9c2.4-.7,4.1-1.9,5-3.8.9-1.9,1.4-3.9,1.4-6.2v-28.7h-17c-5.7,0-10.6,1.6-14.5,4.9-3.9,3.3-7.4,7.3-10.5,12.1-3.1,4.8-6,10.1-8.8,15.8-2.8,5.8-6,11-9.5,15.8-3.5,4.8-7.8,8.9-12.7,12.1-4.9,3.3-11,4.9-18.2,4.9s-6.6-.2-9.4-.5c-2.8-.3-5.5-.9-8.1-1.6-2.6-.7-5.2-1.6-7.8-2.7-2.6-1.1-5.4-2.4-8.5-4l1-1.8ZM536.6,301.8h-19.3c-8.7,0-15.7,2.5-21.2,7.4-5.4,4.9-8.1,11.8-8.1,20.7s2.7,15.7,8.1,20.8c5.4,5,12.5,7.5,21.2,7.5h19.3v-56.4Z"/>
      <path class="st0" d="M687.7,414.7c-4.5,2.7-8.8,4.5-12.7,5.6-4.9,1.3-9.9,1.9-15,2-7.7,0-14.4-1.5-20.8-6.1s-10.3-9.6-13.9-15.7c-4-6.6-5.5-14.6-6.1-22.2-.5-5.9-.6-11.8-.7-17.7,0-2.9,0-5.8,0-8.8,0-2.1-.1-4.2-.4-6.3s-.3-2-.4-2.9-.2-1.4-.4-1.6c4.3.5,8.5,1.7,12.7,3.5,4.2,1.8,7.9,4.1,11.1,6.9h2.6c-4.3-3.5-8.5-6.2-12.6-8.1-4.1-1.9-9-3.3-14.4-4.1-3.7-12.7-10.5-22.4-20.3-29.2-9.8-6.8-21.1-10.1-34.1-10.1h-12.2c2.4.8,4.1,2.1,5,3.9.9,1.8,1.4,3.9,1.4,6.3v77.8c0,2.3-.5,4.4-1.4,6.3-.9,1.9-2.6,3.2-5,3.9h19.9c-2.4-.8-4.1-2.1-5.1-3.9-1-1.8-1.5-3.9-1.5-6.3v-18.4c0-1.5.3-2.7.8-3.8,2-4.3,4.7-8,8.1-11,3.4-3.1,7.2-5.6,11.4-7.7,4.2-2.1,8.7-3.6,13.3-4.6,4.7-1,9.2-1.5,13.6-1.5.5,2.5,1,5,1,7.5.4,20.9-1.9,39.3,9.6,56.1,3.9,5.7,8.6,11.1,14.4,15,8.4,5.6,18.8,6.4,28.6,5.3,2.8-.3,5.5-.9,8.1-1.6,2.6-.7,5.2-1.6,7.8-2.7,2.6-1.1,5.4-2.4,8.5-4l-1-1.8ZM596.9,340.3c-4.7,1.1-9.1,2.6-13.3,4.7-4.2,2.1-8.1,4.6-11.6,7.7-3.5,3.1-6.4,6.7-8.5,10.8v-53.3c0-.7,0-1.5.2-2.4.1-.9.4-1.8.7-2.7.3-.9.8-1.6,1.4-2.2.6-.6,1.4-.9,2.5-.9,5.4,0,10.4,1,15,2.9,4.7,1.9,8.9,4.5,12.5,7.8,3.7,3.3,6.8,7.2,9.2,11.6,2.5,4.5,4.3,9.3,5.5,14.3-4.4,0-9,.5-13.6,1.6Z"/>
    </g>
    <g>
      <path class="st0" d="M317.6,464.3c9.4,0,17.1,8.1,17.1,18.3-.1,8.2-4.6,15.1-12.2,17.2-.1,0-.3,0-.4.1,7.2,6.8,15.5,10,23.6,10.9,8.5.9,17-.8,24.2-3.9,1.4-.6,3-1.7,3.9-3.1v5.5c-8.2,4.1-18.2,6.4-28.5,5.3-9.8-1.1-19.7-5.4-28-14.1h-11.1v12c0,.7.3,1.8.7,2.5h-6.9c.4-.7.7-1.7.7-2.5v-45.7c0-.7-.3-1.8-.7-2.5h17.6ZM300,464.3h0,0ZM306.2,497.1h10.2c6.5,0,12.7-5.5,12.8-14.5,0-8.4-4.9-14.9-12.8-14.9h-10.2v29.4ZM369.7,466.9c2.4,1.7,4.1,4.4,4.1,7.9s-.8,4.3-2.1,5.8c-1.3,1.5-3.1,2.5-5.1,3.3-3.9,1.6-8.6,2.2-11.8,3.3-2.8,1-4,3.7-2.3,6.1.7.8,1.5,1.5,2.4,2.1,1.8,1.1,4.2,1.7,6.4,1.7,1.2,0,2.2-.1,3.2-.3,5.5-1.4,8.8-6.5,9.3-8.5v7.4c-2.2,2-4.9,3.5-7.9,4.3-2.5.6-5.3.7-7.9.3-8.3-1.6-14.6-8.9-14.6-17.8s8-18.1,17.9-18.1,6,.8,8.4,2.5ZM358.8,467.9c-1.7.3-3.3,1.1-4.7,2-3.6,2.7-5.2,7.4-5.2,12.4s.1,2.8.4,4.1c1.2-1.3,2.8-2.1,4.5-2.7,3.8-1.4,7.3-1.6,10.7-3.5,1.8-1,3.8-3.2,3.8-5.5,0-3.2-1.1-6.7-6.2-7.1-.2,0-.4,0-.6,0-.9,0-1.8,0-2.7.2Z"/>
      <path class="st0" d="M394.4,464.3l26.9,42.4v-39.9c0-.7-.3-1.8-.7-2.5h6.9c-.4.7-.7,1.7-.7,2.5v45.7c0,.7.3,1.8.7,2.5h-4.9l-26.9-42.4v39.9c0,.7.3,1.8.7,2.5h-6.9c.4-.7.7-1.7.7-2.5v-45.7c0-.7-.3-1.8-.7-2.5h4.9Z"/>
      <path class="st0" d="M475.7,464.3v4.1c-.7-.4-1.7-.7-2.5-.7h-11.8v44.8c0,.7.3,1.8.7,2.5h-6.9c.4-.7.7-1.7.7-2.5v-42.3c0-2.2.7-2.5.7-2.5h-12.4c-.7,0-1.8.3-2.5.7v-4.1h33.9Z"/>
      <path class="st0" d="M560.5,495.4l.5,1.2,6.7,15.9c.5,1.1,1.1,2.1,2,2.4h-7.8c.4-.7.2-1.7-.1-2.5l-4.8-11.5c-4.3,2.3-8.6,2.7-12.6,2-2.9-.5-5.7-1.5-8.4-2.8l-5.2,12.3c-.5,1.2-.4,2-.1,2.5h-5.5c.9-.4,1.5-1.4,2-2.5l5.8-13.7c-.8-.4-1.6-.8-2.4-1.2-4.4-2.2-8.7-4.3-13-4.9-2.9-.4-5.7-.2-8.8,1.1-1.5.7-3.9,2.3-4,3.8l-2.9-3.6c4.5-3.4,9-4.8,13.2-4.8,1,0,1.9,0,2.9.2,5,.7,9.6,3,14.1,5.2.7.4,1.5.7,2.2,1.1l13.2-31.3,13.1,31ZM537.2,497.1c2.6,1.2,5.1,2.1,7.7,2.6,3.5.6,6.9.3,10.7-1.8l-9.3-22.2-9,21.4Z"/>
      <path class="st0" d="M586.1,464.3l26.9,42.4v-39.9c0-.7-.3-1.8-.7-2.5h6.9c-.4.7-.7,1.7-.7,2.5v45.7c0,.7.3,1.8.7,2.5h-4.9l-26.9-42.4v39.9c0,.7.3,1.8.7,2.5h-6.9c.4-.7.7-1.7.7-2.5v-45.7c0-.7-.3-1.8-.7-2.5h4.9Z"/>
      <path class="st0" d="M663,464.6c5.4.7,10.4,2.6,13.5,5.2v9.2c-1.8-3.4-6.2-11.3-17.5-11.3s-20.1,10.3-20.1,21.9,8.6,22.1,20.1,22.1,9.1-2,12-5v-10.7c0-2.2.7-2.5.7-2.5h-9.2c-.7,0-1.8.3-2.5.7v-4.1h16.5v18.7c-4.5,4.6-11.1,6.2-18,6.2-13.8,0-25.1-11.5-25.1-25.5s9.3-23.3,21.5-25c2.6-.4,5.3-.4,8.1,0Z"/>
      <path class="st0" d="M730.7,512.5c.5,1.1,1.1,2.1,2,2.4h-7.8c.4-.7.2-1.7-.1-2.5l-4.2-10.1c-.5-1.5.1-1.9.1-1.9h-21.8l-5.1,12c-.5,1.2-.4,2-.1,2.5h-5.5c.9-.4,1.5-1.4,2-2.5l20.3-48.2,20.3,48.2ZM700.2,497.1h18l-9-21.4-9,21.4Z"/>
      <path class="st0" d="M772,471.1c4.4,4.3,6.9,10.4,6.9,17.5s-2.1,13.6-6.3,18.5c-4.3,4.9-10.7,7.9-19,7.9h-9.4c.4-.7.7-1.7.7-2.5v-45.7c0-.7-.3-1.8-.7-2.5h9.4c7.6,0,14,2.4,18.4,6.7ZM750.4,511.6h1.9c3.8,0,7-.7,9.8-1.9,8.3-3.7,11.1-11.6,11.3-21.1.1-6.6-2.8-15.5-10.5-18.8-3-1.3-6.5-2.1-10.6-2.1h-1.9v43.9Z"/>
      <path class="st0" d="M800,464.3c-.4.7-.7,1.7-.7,2.5v45.7c0,.7.3,1.8.7,2.5h-6.9c.4-.7.7-1.7.7-2.5v-45.7c0-.7-.3-1.8-.7-2.5h6.9Z"/>
    </g>
  </g>
</svg>